<svg width="656" height="495" viewBox="0 0 656 495" fill="none" xmlns="http://www.w3.org/2000/svg">
<g clip-path="url(#clip0_34_3)">
<path d="M378.034 24.0918C383.661 36.0614 371.737 39.4518 358.079 45.8674C344.421 52.283 334.2 59.2943 328.573 47.3247C322.946 35.355 318.38 11.5974 337.702 2.52146C357.69 -6.86717 372.407 12.1221 378.034 24.0918Z" fill="#2F2E41"/>
<path d="M350.167 47.6313C360.322 47.6313 368.554 39.4024 368.554 29.2516C368.554 19.1007 360.322 10.8718 350.167 10.8718C340.012 10.8718 331.78 19.1007 331.78 29.2516C331.78 39.4024 340.012 47.6313 350.167 47.6313Z" fill="#FFB8B8"/>
<path d="M441.26 110.762C440.624 109.931 439.987 109.116 439.343 108.323C438.513 107.29 437.677 106.29 436.835 105.322C427.305 94.3287 417.169 87.4067 406.007 86.6658H405.992L405.827 86.6509L383.586 108.323L376.025 115.686L376.189 116.09L380.269 126.245H451.756C448.535 120.901 445.031 115.733 441.26 110.762Z" fill="#2F2E41"/>
<path d="M330.173 36.6512L336.755 33.5595L335.838 24.0682L340.239 31.9229L343.385 30.4452L342.85 24.9086L345.417 29.4904L368.793 18.5105C366.597 13.8402 362.636 10.233 357.78 8.48243C352.924 6.73186 347.571 6.98131 342.899 9.17589L339.511 10.7672C334.839 12.9618 331.23 16.9218 329.479 21.776C327.728 26.6302 327.977 31.9809 330.173 36.6512Z" fill="#2F2E41"/>
<path d="M482.509 370.274H98.5848C95.3098 370.27 92.1701 368.968 89.8544 366.653C87.5387 364.338 86.2361 361.2 86.2324 357.926V127.326C86.2351 124.927 87.1893 122.628 88.8858 120.932C90.5823 119.236 92.8825 118.282 95.2817 118.28H485.656C488.096 118.282 490.436 119.253 492.162 120.978C493.888 122.703 494.859 125.042 494.861 127.482V357.926C494.858 361.2 493.555 364.338 491.239 366.653C488.924 368.968 485.784 370.27 482.509 370.274Z" fill="#F2F2F2"/>
<path d="M110.563 357.926H470.531C473.708 357.926 476.754 356.665 479.001 354.42C481.247 352.174 482.509 349.129 482.509 345.953V150.229C482.509 147.054 481.247 144.008 479.001 141.763C476.754 139.517 473.708 138.256 470.531 138.256H110.563C107.386 138.256 104.339 139.517 102.093 141.763C99.8467 144.008 98.5847 147.054 98.5847 150.229V345.953C98.5847 349.129 99.8467 352.174 102.093 354.42C104.339 356.665 107.386 357.926 110.563 357.926Z" fill="white"/>
<path d="M494.69 126.619H86.0591V120.333C86.0638 117.049 87.3718 113.9 89.6959 111.578C92.02 109.257 95.1706 107.951 98.4564 107.948H482.292C485.578 107.951 488.729 109.256 491.053 111.578C493.377 113.9 494.685 117.049 494.69 120.333V126.619Z" fill="#45A60A"/>
<path d="M108.589 120.508C110.36 120.508 111.796 119.073 111.796 117.302C111.796 115.532 110.36 114.097 108.589 114.097C106.818 114.097 105.383 115.532 105.383 117.302C105.383 119.073 106.818 120.508 108.589 120.508Z" fill="white"/>
<path d="M120.761 120.508C122.532 120.508 123.968 119.073 123.968 117.302C123.968 115.532 122.532 114.097 120.761 114.097C118.99 114.097 117.554 115.532 117.554 117.302C117.554 119.073 118.99 120.508 120.761 120.508Z" fill="white"/>
<path d="M132.933 120.508C134.704 120.508 136.139 119.073 136.139 117.302C136.139 115.532 134.704 114.097 132.933 114.097C131.162 114.097 129.726 115.532 129.726 117.302C129.726 119.073 131.162 120.508 132.933 120.508Z" fill="white"/>
<path d="M301.779 315.48H269.588C267.702 315.478 265.895 314.729 264.561 313.396C263.228 312.063 262.478 310.256 262.476 308.371V276.193C262.478 274.308 263.228 272.501 264.561 271.168C265.895 269.836 267.702 269.086 269.588 269.084H301.779C303.665 269.086 305.472 269.836 306.805 271.168C308.139 272.501 308.889 274.308 308.891 276.193V308.371C308.889 310.256 308.139 312.063 306.805 313.396C305.472 314.729 303.665 315.478 301.779 315.48ZM269.588 270.581C268.099 270.582 266.672 271.174 265.62 272.226C264.567 273.278 263.975 274.705 263.973 276.193V308.371C263.975 309.859 264.567 311.286 265.62 312.338C266.672 313.39 268.099 313.982 269.588 313.984H301.779C303.268 313.982 304.695 313.39 305.747 312.338C306.8 311.286 307.392 309.859 307.394 308.371V276.193C307.392 274.705 306.8 273.278 305.747 272.226C304.695 271.174 303.268 270.582 301.779 270.581H269.588Z" fill="#080609"/>
<path d="M295.416 306.5H275.951C275.356 306.5 274.785 306.263 274.364 305.842C273.943 305.421 273.706 304.851 273.705 304.255V280.309C273.706 279.714 273.943 279.143 274.364 278.722C274.785 278.301 275.356 278.064 275.951 278.064H290.055C290.567 278.064 291.063 278.239 291.462 278.559L296.822 282.865C297.085 283.075 297.297 283.341 297.442 283.644C297.587 283.947 297.662 284.279 297.661 284.615V304.255C297.661 304.851 297.424 305.421 297.003 305.842C296.582 306.263 296.011 306.5 295.416 306.5ZM275.951 279.561C275.753 279.561 275.563 279.64 275.422 279.78C275.282 279.92 275.203 280.11 275.203 280.309V304.255C275.203 304.454 275.282 304.644 275.422 304.784C275.563 304.925 275.753 305.003 275.951 305.004H295.416C295.614 305.003 295.804 304.925 295.945 304.784C296.085 304.644 296.164 304.454 296.164 304.255V284.615C296.165 284.503 296.139 284.392 296.091 284.291C296.043 284.19 295.972 284.101 295.885 284.031L290.524 279.725C290.391 279.619 290.225 279.561 290.055 279.561H275.951Z" fill="#080609"/>
<path d="M291.672 288.54H279.694C279.496 288.54 279.305 288.462 279.165 288.321C279.025 288.181 278.946 287.991 278.946 287.792C278.946 287.594 279.025 287.403 279.165 287.263C279.305 287.123 279.496 287.044 279.694 287.044H291.672C291.871 287.044 292.061 287.123 292.202 287.263C292.342 287.403 292.421 287.594 292.421 287.792C292.421 287.991 292.342 288.181 292.202 288.321C292.061 288.462 291.871 288.54 291.672 288.54Z" fill="#080609"/>
<path d="M291.672 293.03H279.694C279.496 293.03 279.305 292.952 279.165 292.811C279.025 292.671 278.946 292.481 278.946 292.282C278.946 292.084 279.025 291.893 279.165 291.753C279.305 291.613 279.496 291.534 279.694 291.534H291.672C291.871 291.534 292.061 291.613 292.202 291.753C292.342 291.893 292.421 292.084 292.421 292.282C292.421 292.481 292.342 292.671 292.202 292.811C292.061 292.952 291.871 293.03 291.672 293.03Z" fill="#080609"/>
<path d="M291.672 297.52H279.694C279.496 297.52 279.305 297.441 279.165 297.301C279.025 297.161 278.946 296.97 278.946 296.772C278.946 296.574 279.025 296.383 279.165 296.243C279.305 296.103 279.496 296.024 279.694 296.024H291.672C291.871 296.024 292.061 296.103 292.202 296.243C292.342 296.383 292.421 296.574 292.421 296.772C292.421 296.97 292.342 297.161 292.202 297.301C292.061 297.441 291.871 297.52 291.672 297.52Z" fill="#080609"/>
<path d="M378.139 315.48H345.948C344.062 315.478 342.255 314.729 340.921 313.396C339.588 312.063 338.838 310.256 338.836 308.371V276.193C338.838 274.308 339.588 272.501 340.921 271.168C342.255 269.836 344.062 269.086 345.948 269.084H378.139C380.024 269.086 381.832 269.836 383.165 271.168C384.499 272.501 385.249 274.308 385.251 276.193V308.371C385.249 310.256 384.499 312.063 383.165 313.396C381.832 314.729 380.024 315.478 378.139 315.48ZM345.948 270.581C344.459 270.582 343.032 271.174 341.979 272.226C340.927 273.278 340.335 274.705 340.333 276.193V308.371C340.335 309.859 340.927 311.286 341.979 312.338C343.032 313.39 344.459 313.982 345.948 313.984H378.139C379.627 313.982 381.055 313.39 382.107 312.338C383.16 311.286 383.752 309.859 383.754 308.371V276.193C383.752 274.705 383.16 273.278 382.107 272.226C381.055 271.174 379.627 270.582 378.139 270.581H345.948Z" fill="#080609"/>
<path d="M372.524 300.514H351.563C350.967 300.513 350.396 300.276 349.975 299.856C349.554 299.435 349.317 298.864 349.317 298.269V286.296C349.317 285.7 349.554 285.13 349.975 284.709C350.396 284.288 350.967 284.051 351.563 284.051H372.524C373.12 284.051 373.69 284.288 374.111 284.709C374.532 285.13 374.769 285.7 374.77 286.296V298.269C374.769 298.864 374.532 299.435 374.111 299.856C373.69 300.276 373.12 300.513 372.524 300.514ZM351.563 285.547C351.364 285.547 351.174 285.626 351.033 285.767C350.893 285.907 350.814 286.097 350.814 286.296V298.269C350.814 298.467 350.893 298.657 351.033 298.798C351.174 298.938 351.364 299.017 351.563 299.017H372.524C372.723 299.017 372.913 298.938 373.053 298.798C373.194 298.657 373.272 298.467 373.273 298.269V286.296C373.272 286.097 373.194 285.907 373.053 285.767C372.913 285.626 372.723 285.547 372.524 285.547H351.563Z" fill="#080609"/>
<path d="M362.043 294.256C361.623 294.257 361.21 294.139 360.853 293.918L349.668 286.93C349.5 286.825 349.381 286.657 349.337 286.464C349.292 286.27 349.326 286.067 349.432 285.899C349.537 285.731 349.704 285.612 349.898 285.567C350.091 285.522 350.294 285.556 350.462 285.661L361.647 292.648C361.766 292.722 361.904 292.761 362.044 292.761C362.184 292.761 362.321 292.722 362.44 292.648L373.624 285.661C373.793 285.556 373.996 285.522 374.189 285.567C374.382 285.612 374.55 285.731 374.655 285.899C374.76 286.067 374.794 286.27 374.75 286.464C374.706 286.657 374.586 286.825 374.418 286.93L363.234 293.918C362.877 294.14 362.464 294.257 362.043 294.256Z" fill="#080609"/>
<path d="M225.419 315.48H193.228C191.343 315.478 189.535 314.729 188.202 313.396C186.868 312.063 186.118 310.256 186.116 308.371V276.193C186.118 274.308 186.868 272.501 188.202 271.168C189.535 269.836 191.343 269.086 193.228 269.084H225.419C227.305 269.086 229.112 269.836 230.446 271.168C231.779 272.501 232.529 274.308 232.531 276.193V308.371C232.529 310.256 231.779 312.063 230.446 313.396C229.112 314.729 227.305 315.478 225.419 315.48ZM193.228 270.581C191.74 270.582 190.312 271.174 189.26 272.226C188.207 273.278 187.615 274.705 187.613 276.193V308.371C187.615 309.859 188.207 311.286 189.26 312.338C190.312 313.39 191.74 313.982 193.228 313.984H225.419C226.908 313.982 228.335 313.39 229.387 312.338C230.44 311.286 231.032 309.859 231.034 308.371V276.193C231.032 274.705 230.44 273.278 229.387 272.226C228.335 271.174 226.908 270.582 225.419 270.581H193.228Z" fill="#080609"/>
<path d="M219.804 300.514H198.843C198.247 300.513 197.676 300.276 197.255 299.856C196.834 299.435 196.598 298.864 196.597 298.269V286.296C196.598 285.7 196.834 285.13 197.255 284.709C197.676 284.288 198.247 284.051 198.843 284.051H219.804C220.4 284.051 220.971 284.288 221.392 284.709C221.813 285.13 222.05 285.7 222.05 286.296V298.269C222.05 298.864 221.813 299.435 221.392 299.856C220.971 300.276 220.4 300.513 219.804 300.514ZM198.843 285.547C198.644 285.547 198.454 285.626 198.314 285.767C198.173 285.907 198.094 286.097 198.094 286.296V298.269C198.094 298.467 198.173 298.657 198.314 298.798C198.454 298.938 198.644 299.017 198.843 299.017H219.804C220.003 299.017 220.193 298.938 220.333 298.798C220.474 298.657 220.553 298.467 220.553 298.269V286.296C220.553 286.097 220.474 285.907 220.333 285.767C220.193 285.626 220.003 285.547 219.804 285.547H198.843Z" fill="#080609"/>
<path d="M216.482 300.514H201.417C201.154 300.514 200.895 300.445 200.668 300.313C200.44 300.182 200.251 299.993 200.12 299.766C199.988 299.538 199.919 299.28 199.919 299.017C199.919 298.754 199.988 298.496 200.12 298.269L204.658 290.411C204.789 290.184 204.978 289.995 205.206 289.863C205.434 289.732 205.692 289.663 205.955 289.663C206.217 289.663 206.476 289.732 206.703 289.863C206.931 289.995 207.12 290.184 207.251 290.411L210.182 295.486L211.88 292.546C212.012 292.318 212.201 292.129 212.428 291.998C212.656 291.867 212.914 291.798 213.177 291.798C213.44 291.798 213.698 291.867 213.926 291.998C214.153 292.129 214.342 292.318 214.474 292.546L217.779 298.269C217.91 298.496 217.979 298.754 217.979 299.017C217.979 299.28 217.91 299.538 217.779 299.766C217.647 299.993 217.458 300.182 217.231 300.313C217.003 300.445 216.745 300.514 216.482 300.514ZM216.482 299.017L213.177 293.294L210.831 297.357C210.765 297.471 210.67 297.565 210.557 297.631C210.443 297.696 210.314 297.731 210.182 297.731C210.051 297.731 209.922 297.696 209.808 297.631C209.694 297.565 209.599 297.471 209.534 297.357L205.955 291.16L201.417 299.017H216.482Z" fill="#080609"/>
<path d="M217.558 290.037C218.385 290.037 219.056 289.367 219.056 288.54C219.056 287.714 218.385 287.044 217.558 287.044C216.732 287.044 216.061 287.714 216.061 288.54C216.061 289.367 216.732 290.037 217.558 290.037Z" fill="#080609"/>
<path d="M575.563 485.03L566.384 485.029L562.018 449.642L575.564 449.643L575.563 485.03Z" fill="#FFB8B8"/>
<path d="M577.903 493.923L548.31 493.922V493.548C548.31 492.036 548.607 490.539 549.186 489.142C549.765 487.745 550.614 486.475 551.683 485.406C552.753 484.337 554.023 483.489 555.42 482.91C556.818 482.332 558.316 482.034 559.828 482.034H559.829L577.904 482.035L577.903 493.923Z" fill="#2F2E41"/>
<path d="M612.994 485.03L603.816 485.029L599.45 449.642L612.995 449.643L612.994 485.03Z" fill="#FFB8B8"/>
<path d="M615.334 493.923L585.741 493.922V493.548C585.741 492.036 586.039 490.539 586.618 489.142C587.197 487.745 588.045 486.475 589.115 485.406C590.184 484.337 591.454 483.489 592.852 482.91C594.249 482.332 595.747 482.034 597.26 482.034H597.26L615.335 482.035L615.334 493.923Z" fill="#2F2E41"/>
<path d="M610.243 469.69L601.742 467.105C601.109 466.913 600.546 466.538 600.124 466.028C599.703 465.518 599.441 464.895 599.372 464.236L591.447 389.159C591.441 389.069 591.401 388.984 591.334 388.921C591.268 388.859 591.18 388.825 591.089 388.825C590.998 388.816 590.907 388.843 590.836 388.9C590.765 388.957 590.718 389.04 590.707 389.131L577.433 461.868C577.352 462.309 577.184 462.73 576.939 463.106C576.693 463.481 576.375 463.804 576.003 464.055C575.631 464.306 575.213 464.48 574.772 464.567C574.332 464.654 573.879 464.652 573.439 464.562L562.576 462.325C561.779 462.158 561.069 461.71 560.577 461.062C560.084 460.414 559.842 459.611 559.894 458.799L567.969 339.58L622.722 333.675L614.586 466.673C614.533 467.528 614.156 468.331 613.533 468.918C612.909 469.506 612.085 469.834 611.228 469.837C610.894 469.836 610.562 469.787 610.243 469.69Z" fill="#2F2E41"/>
<path d="M610.191 235.76C620.345 235.76 628.578 227.531 628.578 217.38C628.578 207.229 620.345 199 610.191 199C600.036 199 591.803 207.229 591.803 217.38C591.803 227.531 600.036 235.76 610.191 235.76Z" fill="#FFB8B8"/>
<path d="M567.884 340.28L579.756 265.559C580.387 261.586 581.858 257.793 584.07 254.433C586.281 251.072 589.184 248.221 592.584 246.069C595.984 243.916 599.803 242.513 603.788 241.951C607.773 241.389 611.831 241.682 615.694 242.81C622.448 244.763 628.231 249.162 631.913 255.148C635.596 261.135 636.913 268.279 635.608 275.184L623.188 341.914L567.884 340.28Z" fill="#45A60A"/>
<path d="M615.267 353.65C616.185 353.044 616.959 352.244 617.535 351.306C618.11 350.368 618.473 349.316 618.598 348.223C618.723 347.13 618.606 346.023 618.257 344.98C617.907 343.937 617.333 342.983 616.574 342.186L628.849 318.425L615.026 319.9L605.489 342.237C604.233 343.599 603.521 345.374 603.488 347.226C603.454 349.078 604.101 350.878 605.306 352.285C606.512 353.692 608.191 354.608 610.027 354.859C611.863 355.111 613.727 354.681 615.267 353.65Z" fill="#FFB8B8"/>
<path d="M617.895 337.995C617.216 337.899 616.582 337.598 616.078 337.133L611.382 332.796C610.875 332.325 610.524 331.71 610.378 331.033C610.232 330.357 610.297 329.652 610.565 329.013L619.951 306.774L618.619 262.833C618.811 261.42 619.279 260.059 619.996 258.827C620.714 257.596 621.668 256.518 622.803 255.655C623.938 254.792 625.232 254.161 626.611 253.798C627.99 253.435 629.427 253.348 630.84 253.54C632.253 253.733 633.614 254.202 634.846 254.921C636.077 255.64 637.155 256.594 638.017 257.729C638.879 258.865 639.509 260.159 639.871 261.537C640.233 262.916 640.319 264.353 640.125 265.765L642.402 293.388C643.094 301.771 640.716 310.121 635.71 316.883L621.073 336.663C620.792 337.043 620.433 337.36 620.021 337.592C619.609 337.825 619.153 337.968 618.681 338.013C618.419 338.038 618.155 338.032 617.895 337.995Z" fill="#45A60A"/>
<path d="M504.305 207.366C504.506 208.448 504.941 209.473 505.58 210.368C506.22 211.263 507.048 212.008 508.006 212.549C508.964 213.09 510.029 213.414 511.127 213.499C512.224 213.584 513.327 213.427 514.357 213.04L531.46 233.603L535.491 220.304L518.632 202.816C517.866 201.129 516.508 199.781 514.816 199.028C513.123 198.275 511.212 198.169 509.446 198.73C507.68 199.291 506.182 200.48 505.234 202.072C504.287 203.663 503.956 205.547 504.305 207.366Z" fill="#FFB8B8"/>
<path d="M517.703 215.89C518.056 215.302 518.58 214.836 519.204 214.553L525.031 211.921C525.663 211.638 526.366 211.555 527.047 211.685C527.727 211.814 528.351 212.149 528.834 212.644L545.662 229.954L586.661 245.861C587.888 246.588 588.96 247.549 589.815 248.69C590.67 249.831 591.292 251.13 591.644 252.511C591.997 253.893 592.074 255.33 591.871 256.741C591.667 258.152 591.188 259.509 590.459 260.735C589.731 261.961 588.768 263.031 587.625 263.884C586.483 264.737 585.183 265.357 583.801 265.708C582.418 266.059 580.98 266.134 579.569 265.929C578.158 265.724 576.8 265.243 575.575 264.514L549.241 255.84C541.248 253.208 534.483 247.764 530.205 240.52L517.69 219.334C517.45 218.927 517.298 218.473 517.244 218.003C517.191 217.533 517.237 217.057 517.379 216.606C517.458 216.355 517.567 216.115 517.703 215.89Z" fill="#45A60A"/>
<path opacity="0.1" d="M625.104 281.112L624.356 305.058L610.565 329.013L622.08 302.318L625.104 281.112Z" fill="#080609"/>
<path d="M608.084 220.834C606.929 220.984 605.759 220.71 604.791 220.063C603.823 219.416 603.123 218.44 602.821 217.315C602.529 216.021 601.891 214.831 600.974 213.872C600.058 212.913 598.897 212.222 597.617 211.872C594.244 211.102 590.122 212.689 587.65 210.134C587.121 209.551 586.738 208.851 586.533 208.091C586.328 207.33 586.307 206.532 586.471 205.762C586.926 203.28 588.703 201.405 590.636 199.905C594.704 196.763 599.627 194.924 604.759 194.629C607.416 194.552 610.075 194.684 612.71 195.024C615.47 195.198 618.2 195.697 620.843 196.51C623.854 197.646 626.531 199.522 628.624 201.965C630.718 204.409 632.162 207.34 632.823 210.489C633.427 213.647 633.334 216.899 632.551 220.018C631.768 223.137 630.313 226.047 628.288 228.546C625.864 231.563 622.739 233.942 619.184 235.475C618.338 235.874 617.367 235.924 616.485 235.612C614.271 234.732 614.632 231.99 615.642 230.162C616.722 228.205 618.384 226.311 617.516 223.929C617.08 222.825 616.244 221.926 615.175 221.41C612.974 220.288 610.512 220.554 608.146 220.827L608.084 220.834Z" fill="#2F2E41"/>
<path d="M498.161 231.214H270.578C267.304 231.21 264.164 229.908 261.848 227.593C259.532 225.278 258.23 222.14 258.226 218.866V170.225C258.23 166.951 259.532 163.813 261.848 161.498C264.164 159.183 267.304 157.881 270.578 157.877H498.161C501.436 157.881 504.575 159.183 506.891 161.498C509.207 163.813 510.509 166.951 510.513 170.225V218.866C510.509 222.14 509.207 225.278 506.891 227.593C504.575 229.908 501.436 231.21 498.161 231.214Z" fill="white"/>
<path d="M498.161 231.588H270.578C267.204 231.584 263.969 230.243 261.583 227.858C259.198 225.473 257.855 222.239 257.852 218.866V170.225C257.855 166.852 259.198 163.618 261.583 161.233C263.969 158.849 267.204 157.507 270.578 157.503H498.161C501.535 157.507 504.77 158.849 507.156 161.233C509.542 163.618 510.884 166.852 510.887 170.225V218.866C510.884 222.239 509.542 225.473 507.156 227.858C504.77 230.243 501.535 231.584 498.161 231.588ZM270.578 159C267.601 159.003 264.747 160.187 262.642 162.291C260.536 164.396 259.352 167.249 259.349 170.225V218.866C259.352 221.842 260.536 224.695 262.642 226.8C264.747 228.904 267.601 230.088 270.578 230.091H498.161C501.138 230.088 503.992 228.904 506.097 226.8C508.203 224.695 509.387 221.842 509.39 218.866V170.225C509.387 167.249 508.203 164.396 506.097 162.291C503.992 160.187 501.138 159.003 498.161 159H270.578Z" fill="#3F3D56"/>
<path d="M470.462 219.24H298.278C295.003 219.237 291.863 217.935 289.547 215.62C287.231 213.305 285.929 210.166 285.925 206.893V181.45C285.929 178.176 287.231 175.038 289.547 172.723C291.863 170.408 295.003 169.106 298.278 169.102H470.462C473.736 169.106 476.876 170.408 479.192 172.723C481.508 175.038 482.81 178.176 482.814 181.45V206.893C482.81 210.166 481.508 213.305 479.192 215.62C476.876 217.935 473.736 219.237 470.462 219.24Z" fill="#F2F2F2"/>
<path d="M335.331 205.527C343.489 205.527 350.103 198.916 350.103 190.76C350.103 182.605 343.489 175.994 335.331 175.994C327.172 175.994 320.559 182.605 320.559 190.76C320.559 198.916 327.172 205.527 335.331 205.527Z" fill="#FF6584"/>
<path d="M459.761 217.75L438.91 200.269L418.419 183.091C417.878 182.637 417.195 182.389 416.489 182.391C415.783 182.392 415.101 182.643 414.562 183.098L394.137 200.356L389.148 204.571L381.625 198.265L358.765 179.1C358.224 178.646 357.54 178.398 356.835 178.4C356.129 178.401 355.446 178.651 354.907 179.107L332.121 198.36L308.975 217.917C308.858 218.016 308.774 218.148 308.735 218.297C308.696 218.445 308.703 218.602 308.756 218.746C308.809 218.89 308.905 219.015 309.031 219.102C309.157 219.19 309.307 219.237 309.46 219.237L356.913 219.145L371.934 219.116L371.787 219.24L416.56 219.154L459.282 219.072C459.435 219.072 459.585 219.024 459.711 218.936C459.837 218.848 459.932 218.723 459.984 218.579C460.037 218.435 460.043 218.278 460.004 218.129C459.964 217.981 459.879 217.849 459.761 217.75Z" fill="#3F3D56"/>
<path d="M655.251 495H511.515C511.317 495 511.126 494.921 510.986 494.781C510.845 494.64 510.766 494.45 510.766 494.252C510.766 494.053 510.845 493.863 510.986 493.722C511.126 493.582 511.317 493.503 511.515 493.503H655.251C655.45 493.503 655.64 493.582 655.781 493.722C655.921 493.863 656 494.053 656 494.252C656 494.45 655.921 494.64 655.781 494.781C655.64 494.921 655.45 495 655.251 495Z" fill="#080609"/>
<path d="M452.212 98.7139C451.614 97.7427 450.825 96.9034 449.892 96.2472C448.958 95.5911 447.901 95.1318 446.785 94.8974C446.376 94.8115 445.96 94.7589 445.542 94.7403L388.504 43.764C387.384 42.6129 385.889 41.8992 384.289 41.751C383.974 41.7148 383.656 41.7048 383.339 41.7211C382.023 41.7809 380.753 42.2227 379.684 42.9924C378.615 43.7622 377.794 44.8266 377.32 46.0555C376.847 47.2844 376.742 48.6246 377.019 49.9121C377.295 51.1996 377.941 52.3787 378.877 53.3052L400.714 72.3353L436.573 103.578C436.603 104.166 436.691 104.751 436.835 105.322C437.265 106.976 438.187 108.461 439.48 109.58C440.773 110.698 442.375 111.398 444.075 111.585C445.625 111.766 447.195 111.507 448.604 110.837C449.721 110.314 450.712 109.556 451.509 108.614C451.591 108.517 451.666 108.427 451.741 108.322C452.788 106.959 453.394 105.309 453.478 103.592C453.562 101.875 453.121 100.173 452.212 98.7139Z" fill="#FFB8B8"/>
<path d="M354.651 147.842L354.12 126.245L353.671 108.322L353.364 95.7805L352.757 71.3325C352.637 70.0236 352.139 68.7778 351.322 67.7474C350.506 66.717 349.407 65.9464 348.16 65.5298C346.913 65.1132 345.571 65.0685 344.299 65.4013C343.027 65.7341 341.879 66.4299 340.996 67.4038C340.788 67.6263 340.601 67.8667 340.435 68.1222C339.513 69.4417 339.099 71.0491 339.267 72.6496L340.6 108.322L341.266 126.245L342.119 149.106C341.873 149.442 341.651 149.795 341.453 150.162C340.921 151.171 340.599 152.277 340.508 153.415C340.416 154.552 340.557 155.696 340.922 156.777C341.302 157.911 341.918 158.951 342.73 159.829C343.542 160.708 344.53 161.404 345.631 161.873C346.731 162.342 347.919 162.572 349.115 162.549C350.311 162.526 351.489 162.249 352.57 161.738C353.826 161.145 354.917 160.251 355.745 159.136C356.574 158.021 357.115 156.719 357.321 155.345C357.526 153.972 357.39 152.568 356.925 151.26C356.459 149.951 355.679 148.777 354.651 147.842Z" fill="#FFB8B8"/>
<path d="M406.007 86.6658L400.714 72.3353L392.15 49.1221C391.532 47.4331 390.542 45.9049 389.252 44.6509C387.962 43.3969 386.407 42.4492 384.701 41.8782C384.566 41.8333 384.424 41.7884 384.289 41.751C382.637 41.2496 380.895 41.1117 379.184 41.3468C377.473 41.5819 375.834 42.1844 374.378 43.1129L345.533 61.4021C342.891 63.0733 341.003 65.7054 340.267 68.7425C339.531 71.7796 340.004 74.9838 341.588 77.6783C345.195 83.9132 349.126 89.9555 353.364 95.7804C356.725 100.353 362.984 100.839 364.069 108.322H385.337L406.868 89.0006L406.007 86.6658Z" fill="#080609"/>
<path d="M75.7345 261.806C85.3149 261.806 93.0814 254.043 93.0814 244.466C93.0814 234.89 85.3149 227.126 75.7345 227.126C66.1541 227.126 58.3876 234.89 58.3876 244.466C58.3876 254.043 66.1541 261.806 75.7345 261.806Z" fill="#A0616A"/>
<path d="M118.321 232.53C118.492 232.666 118.658 232.81 118.818 232.963C119.615 233.713 120.245 234.623 120.665 235.634C121.085 236.644 121.288 237.732 121.258 238.826C121.229 239.92 120.968 240.995 120.494 241.982C120.02 242.968 119.342 243.843 118.506 244.55C118.311 244.713 118.108 244.866 117.897 245.009L119.071 284.629C119.104 285.926 118.719 287.199 117.971 288.26C117.223 289.32 116.153 290.111 114.92 290.516L114.848 290.531L82.6658 293.957C81.7909 294.05 80.9062 293.969 80.0628 293.718C79.2194 293.468 78.434 293.053 77.7521 292.497C77.0701 291.941 76.505 291.256 76.0894 290.48C75.6739 289.705 75.4161 288.855 75.3309 287.98C75.2458 287.105 75.335 286.221 75.5934 285.38C75.8517 284.539 76.2742 283.758 76.8363 283.081C77.3984 282.405 78.089 281.846 78.8683 281.438C79.6476 281.029 80.5001 280.779 81.3766 280.702L104.318 278.683L108.285 244.371C108.026 244.141 107.783 243.894 107.558 243.63C106.314 242.158 105.661 240.277 105.727 238.352C105.793 236.426 106.572 234.594 107.914 233.21C109.255 231.827 111.063 230.991 112.986 230.866C114.91 230.74 116.811 231.333 118.321 232.53Z" fill="#A0616A"/>
<path d="M104.305 485.796H112.964L117.083 452.411H104.303L104.305 485.796Z" fill="#A0616A"/>
<path d="M102.096 482.971L119.149 482.97C120.576 482.97 121.989 483.251 123.308 483.797C124.626 484.343 125.824 485.143 126.833 486.151C127.843 487.16 128.643 488.358 129.189 489.676C129.735 490.994 130.016 492.406 130.016 493.833V494.186L102.097 494.187L102.096 482.971Z" fill="#2F2E41"/>
<path d="M18.241 473.829L25.6808 478.257L46.3077 451.679L35.3269 445.143L18.241 473.829Z" fill="#A0616A"/>
<path d="M17.7896 470.272L32.4414 478.992C33.6676 479.722 34.7386 480.686 35.592 481.83C36.4455 482.973 37.0653 484.273 37.4161 485.656C37.7668 487.039 37.8417 488.477 37.6364 489.889C37.4311 491.3 36.9496 492.658 36.2195 493.883L36.0388 494.187L12.0494 479.909L17.7896 470.272Z" fill="#2F2E41"/>
<path d="M115.007 474.005H105.311C104.526 474.006 103.768 473.716 103.184 473.191C102.601 472.667 102.232 471.944 102.151 471.163L92.3756 379.315C92.351 379.084 92.2509 378.867 92.0908 378.699C91.9308 378.53 91.7196 378.419 91.4899 378.382C91.2603 378.345 91.0249 378.385 90.82 378.495C90.6152 378.605 90.4523 378.779 90.3565 378.991L72.7223 418.023L41.5019 468.912C41.0978 469.564 40.4722 470.049 39.7396 470.278C39.0069 470.507 38.2163 470.464 37.5125 470.158L25.0402 464.673C24.6278 464.491 24.2587 464.224 23.9574 463.89C23.6561 463.555 23.4295 463.16 23.2925 462.73C23.1555 462.301 23.1114 461.848 23.163 461.401C23.2146 460.953 23.3608 460.522 23.5918 460.135L52.2919 412.098L61.094 371.625C58.3256 354.073 70.1936 327.977 70.3139 327.715L70.3727 327.588L103.063 314.816L103.227 315.016C116.12 357.307 123.975 402.819 118.175 471.094C118.103 471.886 117.739 472.623 117.153 473.161C116.568 473.699 115.802 474 115.007 474.005Z" fill="#2F2E41"/>
<path d="M69.0557 331.865L68.9035 331.545C68.8307 331.392 61.5617 316.067 55.9582 299.687C54.8813 296.52 54.4742 293.163 54.7627 289.83C55.0512 286.497 56.0289 283.261 57.6341 280.325C59.2601 277.36 61.4846 274.764 64.1666 272.702C66.8487 270.64 69.9299 269.158 73.215 268.349C78.918 266.982 84.9223 267.71 90.134 270.398C95.3456 273.086 99.4178 277.556 101.609 282.993C106.053 294.104 104.637 305.963 103.304 315.289L103.277 315.476L103.107 315.558L69.0557 331.865Z" fill="#3F3D56"/>
<path d="M96.7671 234.671H69.2223V222.669C75.2681 220.268 81.1842 218.226 84.7604 222.669C87.9448 222.669 90.9987 223.934 93.2504 226.184C95.5021 228.435 96.7671 231.488 96.7671 234.671Z" fill="#2F2E41"/>
<path d="M67.6974 220.551C51.2305 220.551 46.6215 241.184 46.6215 252.823C46.6215 259.315 49.5583 261.636 54.1732 262.422L55.8031 253.733L59.6203 262.796C60.9167 262.802 62.2785 262.777 63.6904 262.751L64.9847 260.087L67.8708 262.703C79.4303 262.721 88.7729 264.405 88.7729 252.823C88.7729 241.184 84.7308 220.551 67.6974 220.551Z" fill="#2F2E41"/>
<path d="M144.485 495H0.748626C0.550078 495 0.359662 494.921 0.219267 494.781C0.0788723 494.64 0 494.45 0 494.252C0 494.053 0.0788723 493.863 0.219267 493.722C0.359662 493.582 0.550078 493.503 0.748626 493.503H144.485C144.683 493.503 144.874 493.582 145.014 493.722C145.155 493.863 145.234 494.053 145.234 494.252C145.234 494.45 145.155 494.64 145.014 494.781C144.874 494.921 144.683 495 144.485 495Z" fill="#080609"/>
<path d="M147.188 248.799H114.997C113.111 248.797 111.303 248.048 109.97 246.715C108.637 245.382 107.887 243.575 107.885 241.69V209.512C107.887 207.627 108.637 205.82 109.97 204.488C111.303 203.155 113.111 202.405 114.997 202.403H147.188C149.073 202.405 150.881 203.155 152.214 204.488C153.547 205.82 154.297 207.627 154.3 209.512V241.69C154.297 243.575 153.547 245.382 152.214 246.715C150.881 248.048 149.073 248.797 147.188 248.799Z" fill="white"/>
<path d="M147.188 248.799H114.997C113.111 248.797 111.303 248.048 109.97 246.715C108.637 245.382 107.887 243.575 107.885 241.69V209.512C107.887 207.627 108.637 205.82 109.97 204.488C111.303 203.155 113.111 202.405 114.997 202.403H147.188C149.073 202.405 150.881 203.155 152.214 204.488C153.547 205.82 154.297 207.627 154.3 209.512V241.69C154.297 243.575 153.547 245.382 152.214 246.715C150.881 248.048 149.073 248.797 147.188 248.799ZM114.997 203.9C113.508 203.901 112.081 204.493 111.028 205.545C109.976 206.597 109.384 208.024 109.382 209.512V241.69C109.384 243.178 109.976 244.605 111.028 245.657C112.081 246.709 113.508 247.301 114.997 247.303H147.188C148.676 247.301 150.103 246.709 151.156 245.657C152.209 244.605 152.801 243.178 152.802 241.69V209.512C152.801 208.024 152.209 206.597 151.156 205.545C150.103 204.493 148.676 203.901 147.188 203.9H114.997Z" fill="#3F3D56"/>
<path d="M141.573 235.704H120.611C120.016 235.703 119.445 235.466 119.024 235.045C118.603 234.624 118.366 234.054 118.365 233.459V217.744C118.366 217.148 118.603 216.578 119.024 216.157C119.445 215.736 120.016 215.499 120.611 215.499H126.512C126.896 215.497 127.274 215.595 127.609 215.782C127.944 215.969 128.225 216.239 128.425 216.567L130.071 219.24H141.573C142.168 219.241 142.739 219.478 143.16 219.899C143.581 220.319 143.818 220.89 143.819 221.485V233.459C143.818 234.054 143.581 234.624 143.16 235.045C142.739 235.466 142.168 235.703 141.573 235.704Z" fill="#45A60A"/>
<path d="M140.891 243.643C140.996 243.834 141.093 244.032 141.181 244.234C141.624 245.235 141.851 246.318 141.846 247.412C141.842 248.507 141.605 249.588 141.154 250.584C140.702 251.581 140.044 252.471 139.224 253.196C138.404 253.922 137.44 254.465 136.396 254.792C136.152 254.867 135.905 254.929 135.656 254.979L121.357 291.95C120.885 293.158 120.035 294.182 118.934 294.869C117.833 295.557 116.54 295.871 115.246 295.765L115.174 295.752L84.1838 286.426C83.3412 286.173 82.5572 285.755 81.8771 285.196C81.197 284.638 80.6343 283.951 80.2214 283.174C79.8086 282.397 79.5537 281.547 79.4717 280.671C79.3896 279.795 79.4819 278.912 79.7433 278.072C80.0047 277.232 80.4299 276.452 80.9945 275.777C81.559 275.103 82.2517 274.547 83.0325 274.141C83.8133 273.735 84.6668 273.488 85.5436 273.414C86.4205 273.34 87.3033 273.441 88.1411 273.71L110.069 280.747L127.045 250.663C126.895 250.35 126.767 250.028 126.662 249.698C126.087 247.859 126.216 245.872 127.024 244.123C127.832 242.374 129.262 240.988 131.035 240.233C132.808 239.478 134.799 239.409 136.62 240.04C138.442 240.67 139.964 241.954 140.891 243.643Z" fill="#A0616A"/>
</g>
<defs>
<clipPath id="clip0_34_3">
<rect width="656" height="495" fill="white"/>
</clipPath>
</defs>
</svg>
